<svg width="40" height="40" viewBox="0 0 40 40" fill="none" xmlns="http://www.w3.org/2000/svg">
<path d="M33.3333 30C35.1667 30 36.65 28.5 36.65 26.6667L36.6667 8.33333C36.6667 6.5 35.1667 5 33.3333 5H6.66667C4.83333 5 3.33333 6.5 3.33333 8.33333V26.6667C3.33333 28.5 4.83333 30 6.66667 30H0C0 31.8333 1.5 33.3333 3.33333 33.3333H36.6667C38.5 33.3333 40 31.8333 40 30H33.3333ZM6.66667 8.33333H33.3333V26.6667H6.66667V8.33333ZM20 31.6667C19.0833 31.6667 18.3333 30.9167 18.3333 30C18.3333 29.0833 19.0833 28.3333 20 28.3333C20.9167 28.3333 21.6667 29.0833 21.6667 30C21.6667 30.9167 20.9167 31.6667 20 31.6667Z" fill="#1A2025"/>
</svg>
