<svg width="45" height="45" viewBox="0 0 45 45" fill="none" xmlns="http://www.w3.org/2000/svg">
<path d="M36.5625 8.4375C35.0306 9.90366 33.2082 11.0323 31.2131 11.7506C29.1094 12.1219 23.2875 9.42187 20.4188 12.1781C19.9406 12.6562 19.35 13.1344 18.7312 13.6125C17.3813 13.0219 15.3 12.1219 13.7812 11.25C12.2625 10.3781 8.4375 8.4375 8.4375 8.4375L0 18.2812C0 18.2812 2.08125 21.0937 3.375 22.95C4.21875 24.1875 5.25937 26.0719 5.93437 27.3375L4.97813 28.4625C4.74913 28.9174 4.66673 29.4321 4.74228 29.9358C4.81783 30.4394 5.04761 30.9073 5.4 31.275C5.80675 31.5799 6.30164 31.7443 6.81 31.7433C7.31836 31.7423 7.8126 31.5759 8.21812 31.2694C8.06776 31.4454 7.95396 31.6497 7.88336 31.8702C7.81277 32.0907 7.78679 32.323 7.80695 32.5537C7.82711 32.7843 7.893 33.0087 8.00078 33.2136C8.10855 33.4185 8.25606 33.5999 8.43469 33.7472C8.86416 33.998 9.35278 34.1297 9.85014 34.1287C10.3475 34.1278 10.8356 33.9941 11.2641 33.7416C10.9427 34.1421 10.7669 34.6399 10.7654 35.1534C10.7638 35.6669 10.9367 36.1657 11.2556 36.5681C11.6702 36.7117 12.1124 36.7574 12.5476 36.7018C12.9828 36.6462 13.3992 36.4907 13.7644 36.2475C13.5824 36.6781 13.5353 37.1537 13.6292 37.6116C13.7231 38.0696 13.9536 38.4883 14.2903 38.8125C14.7659 39.0238 15.2874 39.111 15.8059 39.0657C16.3244 39.0205 16.8229 38.8443 17.2547 38.5538L18.7059 37.2403C20.0334 38.5622 21.8644 39.3806 23.8866 39.3806L24.0581 39.3778C24.7245 39.3209 25.3629 39.0838 25.9049 38.692C26.4469 38.3001 26.8721 37.7681 27.135 37.1531C27.5456 37.3106 28.0125 37.4175 28.5075 37.4175C29.1712 37.4175 29.7872 37.2263 30.3075 36.8972C31.9528 35.8088 31.5591 34.965 31.5591 34.965C32.1441 35.2168 32.794 35.2765 33.4151 35.1355C34.0363 34.9945 34.5967 34.6601 35.0156 34.1803C35.451 33.7349 35.7255 33.1571 35.7958 32.5383C35.8661 31.9194 35.7282 31.2948 35.4038 30.7631C35.4215 30.7737 35.4422 30.7787 35.4628 30.7772C36.6469 30.7772 37.6763 30.1247 38.2134 29.1628C38.4778 28.4792 38.5671 27.7403 38.4733 27.0134C38.3795 26.2864 38.1055 25.5944 37.6763 25.0003L37.6847 25.0144C39.9909 24.5644 39.9066 23.4113 41.0316 21.7238C42.0968 20.3467 43.4222 19.1923 44.9325 18.3262L36.5625 8.4375ZM36.4219 28.2938C35.1844 29.5313 34.2281 28.9969 32.1188 27.3937C30.0094 25.7906 25.8188 22.7813 25.8188 22.7813C25.9903 23.6391 26.3869 24.3844 26.9466 24.9778C27.8438 25.9875 30.5156 28.2937 31.7812 29.475C32.5688 30.2062 34.5938 31.6687 33.4125 32.7937C32.2313 33.9187 31.3031 32.7938 29.3625 31.2188C27.4219 29.6438 23.0906 25.7625 23.0906 25.7625C23.0668 26.1345 23.1221 26.5074 23.253 26.8565C23.3839 27.2056 23.5874 27.5229 23.85 27.7875C24.3281 28.35 27 30.9375 28.125 32.1187C29.25 33.3 30.2344 34.0031 29.2781 34.9312C28.3219 35.8594 26.3813 34.3969 25.3125 33.3C23.6531 31.6969 20.3625 28.7156 20.3625 28.7156L20.3597 28.8647C20.3597 29.6634 20.6353 30.3947 21.0994 30.9741C21.9094 32.0372 23.4844 33.4153 24.4406 34.4841C25.3969 35.5528 25.9594 36.4528 24.4406 37.2966C22.9219 38.1403 20.6719 36.0591 19.6875 35.0466V35.0409C19.6877 34.7631 19.5879 34.4946 19.4062 34.2844C19.0698 33.9727 18.6547 33.7588 18.2057 33.6656C17.7567 33.5724 17.2908 33.6036 16.8581 33.7556C17.0361 33.5963 17.1788 33.4014 17.277 33.1836C17.3752 32.9658 17.4268 32.7298 17.4284 32.4909C17.43 32.252 17.3816 32.0154 17.2863 31.7963C17.191 31.5772 17.0509 31.3805 16.875 31.2188C16.5058 30.939 16.0552 30.7879 15.592 30.7884C15.1288 30.7889 14.6786 30.941 14.31 31.2216C14.4964 31.0435 14.6402 30.8258 14.7309 30.5846C14.8216 30.3433 14.8567 30.0848 14.8338 29.8281C14.8108 29.5714 14.7303 29.3231 14.5982 29.1018C14.4662 28.8805 14.2859 28.6918 14.0709 28.5497C13.5675 28.2333 12.9767 28.0847 12.3834 28.1251C11.7902 28.1655 11.225 28.393 10.7691 28.7747C11.0738 28.4054 11.224 27.9326 11.1884 27.4552C11.1527 26.9777 10.934 26.5325 10.5778 26.2125C10.1352 25.8005 9.57108 25.5428 8.96985 25.4779C8.36863 25.413 7.76255 25.5444 7.24219 25.8525L5.37187 22.6941C4.07812 20.6409 2.55938 18.5034 2.55938 18.5034L8.97188 10.7128C8.97188 10.7128 11.25 12.1191 13.1344 13.1878C14.0625 13.7222 15.6656 14.4253 16.875 14.9878C14.9625 16.4222 13.3594 17.8003 13.8375 18.7566C14.6896 19.3682 15.7078 19.7056 16.7565 19.7237C17.8052 19.7418 18.8345 19.4397 19.7072 18.8578C20.8261 18.114 22.1408 17.7195 23.4844 17.7244C24.4603 17.7244 25.3884 17.9269 26.2294 18.2953C27.7875 19.3472 30.6562 21.9347 33.2719 23.5659C36.5625 25.9566 37.2094 27.5034 36.4219 28.2909V28.2938Z" fill="#1A2025"/>
</svg>
