<svg width="35" height="25" viewBox="0 0 35 25" fill="none" xmlns="http://www.w3.org/2000/svg">
<path d="M11.375 12.25C14.7586 12.25 17.5 9.50863 17.5 6.125C17.5 2.74137 14.7586 0 11.375 0C7.99137 0 5.25 2.74137 5.25 6.125C5.25 9.50863 7.99137 12.25 11.375 12.25ZM30.625 9.1875C30.625 11.8466 28.4716 14 25.8125 14C25.1805 14.0001 24.5546 13.8757 23.9707 13.6339C23.3868 13.3921 22.8562 13.0376 22.4093 12.5907C21.9624 12.1438 21.6079 11.6132 21.3661 11.0293C21.1243 10.4454 20.9999 9.81952 21 9.1875C21 6.52838 23.1534 4.375 25.8125 4.375C28.4716 4.375 30.625 6.52838 30.625 9.1875ZM11.375 14C13.7673 14 17.6601 14.7446 20.2134 16.2269C21.2564 17.2882 21.875 18.4459 21.875 19.6V24.5H0V19.6C0 15.876 7.57837 14 11.375 14ZM35 24.5H23.625V19.6C23.625 18.361 23.1779 17.22 22.4665 16.2024C23.8149 15.9005 25.1423 15.75 26.1564 15.75C29.4175 15.75 35 17.3136 35 20.4164V24.5Z" fill="#1A2025"/>
</svg>
