<svg width="36" height="36" viewBox="0 0 36 36" fill="none" xmlns="http://www.w3.org/2000/svg">
<path d="M30 6H27V4.5H30.75C31.17 4.5 31.5 4.83 31.5 5.25V8.25C31.5 8.67 31.17 9 30.75 9H30V10.5H28.5V7.5H30V6ZM28.5 13.5H30V12H28.5V13.5ZM25.5 4.5H24V10.5H25.5V4.5ZM34.5 22.5V27C34.5 27.825 33.825 28.5 33 28.5H31.5V30C31.5 31.665 30.165 33 28.5 33H7.5C6.70435 33 5.94129 32.6839 5.37868 32.1213C4.81607 31.5587 4.5 30.7956 4.5 30V28.5H3C2.175 28.5 1.5 27.825 1.5 27V22.5C1.5 21.675 2.175 21 3 21H4.5C4.5 15.195 9.195 10.5 15 10.5H16.5V8.595C15.6 8.085 15 7.11 15 6C15 4.35 16.35 3 18 3C19.65 3 21 4.35 21 6C21 7.11 20.4 8.085 19.5 8.595V10.5H21C21.51 10.5 22.005 10.545 22.5 10.62V15H29.61C30.8437 16.7572 31.5038 18.853 31.5 21H33C33.825 21 34.5 21.675 34.5 22.5ZM15 23.25C15 22.2554 14.6049 21.3016 13.9017 20.5983C13.1984 19.8951 12.2446 19.5 11.25 19.5C10.2554 19.5 9.30161 19.8951 8.59835 20.5983C7.89509 21.3016 7.5 22.2554 7.5 23.25C7.5 24.2446 7.89509 25.1984 8.59835 25.9017C9.30161 26.6049 10.2554 27 11.25 27C12.2446 27 13.1984 26.6049 13.9017 25.9017C14.6049 25.1984 15 24.2446 15 23.25ZM28.5 23.25C28.5 22.2554 28.1049 21.3016 27.4017 20.5983C26.6984 19.8951 25.7446 19.5 24.75 19.5C23.7554 19.5 22.8016 19.8951 22.0983 20.5983C21.3951 21.3016 21 22.2554 21 23.25C21 24.2446 21.3951 25.1984 22.0983 25.9017C22.8016 26.6049 23.7554 27 24.75 27C25.7446 27 26.6984 26.6049 27.4017 25.9017C28.1049 25.1984 28.5 24.2446 28.5 23.25ZM25.5 12H24V13.5H25.5V12Z" fill="#1A2025"/>
</svg>
