<svg width="40" height="40" viewBox="0 0 40 40" fill="none" xmlns="http://www.w3.org/2000/svg">
<path d="M3.71094 8.12499H33.75V4.02499C33.75 3.84003 33.709 3.65737 33.6299 3.49018C33.5507 3.323 33.4355 3.17546 33.2925 3.0582C33.1494 2.94094 32.9821 2.85689 32.8027 2.8121C32.6232 2.76731 32.4361 2.76291 32.2547 2.79921L3.50469 7.52421C3.29061 7.56683 3.09142 7.66476 2.92694 7.80827C2.76246 7.95177 2.63843 8.13585 2.56719 8.34218C2.93131 8.19822 3.31939 8.12453 3.71094 8.12499ZM36.2109 9.99999H3.71094C3.37942 9.99999 3.06147 10.1317 2.82705 10.3661C2.59263 10.6005 2.46094 10.9185 2.46094 11.25V33.75C2.46094 34.0815 2.59263 34.3995 2.82705 34.6339C3.06147 34.8683 3.37942 35 3.71094 35H36.2109C36.5425 35 36.8604 34.8683 37.0948 34.6339C37.3292 34.3995 37.4609 34.0815 37.4609 33.75V11.25C37.4609 10.9185 37.3292 10.6005 37.0948 10.3661C36.8604 10.1317 36.5425 9.99999 36.2109 9.99999ZM28.75 25C28.2555 25 27.7722 24.8534 27.3611 24.5787C26.95 24.304 26.6295 23.9135 26.4403 23.4567C26.2511 22.9999 26.2016 22.4972 26.298 22.0123C26.3945 21.5273 26.6326 21.0819 26.9822 20.7322C27.3319 20.3826 27.7773 20.1445 28.2623 20.048C28.7472 19.9516 29.2499 20.0011 29.7067 20.1903C30.1635 20.3795 30.554 20.6999 30.8287 21.1111C31.1034 21.5222 31.25 22.0055 31.25 22.5C31.25 23.163 30.9866 23.7989 30.5178 24.2678C30.0489 24.7366 29.413 25 28.75 25Z" fill="#1A2025"/>
<path d="M2.44763 20.2734V9.0625C2.44763 8.09922 2.89451 7.61875 3.65232 7.5C6.40232 7.06797 12.1351 6.83594 12.1351 6.83594C12.1351 6.83594 11.4844 8.08594 9.99998 8.08594V10C11.4453 10 12.4476 11.8359 12.4476 11.8359L6.62732 18.4375L2.44763 20.2734Z" fill="#1A2025"/>
</svg>
