<svg width="4974" height="4982" viewBox="0 0 4974 4982" fill="none" xmlns="http://www.w3.org/2000/svg">
<path d="M109.823 1749.16C169.911 1553.18 253.875 1365.33 359.823 1189.85L2500 2482L109.823 1749.16Z" fill="url(#paint0_radial_147_266)"/>
<path d="M604.15 852.353C737.771 696.903 890.005 558.479 1057.42 440.195L2500 2482L604.15 852.353Z" fill="url(#paint1_radial_147_266)"/>
<path d="M1604 148.081C1795.36 74.6138 1995.04 24.9617 2198.53 0.24306L2500 2482L1604 148.081Z" fill="url(#paint2_radial_147_266)"/>
<path d="M2913.51 16.4355C3115.67 50.3412 3312.9 108.982 3500.75 191.038L2500 2482L2913.51 16.4355Z" fill="url(#paint3_radial_147_266)"/>
<path d="M3998.09 480.566C4162.19 603.401 4310.57 745.953 4439.87 905.012L2500 2482L3998.09 480.566Z" fill="url(#paint4_radial_147_266)"/>
<path d="M4809.82 1525.59C4888.24 1714.99 4943.07 1913.3 4973.08 2116.08L2500 2482L4809.82 1525.59Z" fill="url(#paint5_radial_147_266)"/>
<path d="M4970.6 2864.27C4939.26 3066.84 4883.12 3264.8 4803.45 3453.67L2500 2482L4970.6 2864.27Z" fill="url(#paint6_radial_147_266)"/>
<path d="M4435.5 4064.35C4305.76 4223.05 4156.99 4365.19 3992.54 4487.57L2500 2482L4435.5 4064.35Z" fill="url(#paint7_radial_147_266)"/>
<path d="M3108.65 4906.78C2909.83 4956.68 2705.63 4981.95 2500.65 4982L2500 2482L3108.65 4906.78Z" fill="url(#paint8_radial_147_266)"/>
<path d="M1519.7 4781.78C1331.13 4701.41 1153.16 4598.14 989.803 4474.31L2500 2482L1519.7 4781.78Z" fill="url(#paint9_radial_147_266)"/>
<path d="M440.861 3899.73C324.615 3730.89 229.576 3548.39 157.884 3356.35L2500 2482L440.861 3899.73Z" fill="url(#paint10_radial_147_266)"/>
<path d="M33.4943 2889.86C0.0520374 2687.62 -8.3898 2482.03 8.35891 2277.73L2500 2482L33.4943 2889.86Z" fill="url(#paint11_radial_147_266)"/>
<defs>
<radialGradient id="paint0_radial_147_266" cx="0" cy="0" r="1" gradientUnits="userSpaceOnUse" gradientTransform="translate(2500 2482) rotate(89.0749) scale(1752.08)">
<stop offset="0.078125" stop-color="#626870" stop-opacity="0"/>
<stop offset="0.557559" stop-color="#626870" stop-opacity="0.6"/>
<stop offset="0.728422" stop-color="#626870"/>
</radialGradient>
<radialGradient id="paint1_radial_147_266" cx="0" cy="0" r="1" gradientUnits="userSpaceOnUse" gradientTransform="translate(2500 2482) rotate(89.0749) scale(1752.08)">
<stop offset="0.078125" stop-color="#626870" stop-opacity="0"/>
<stop offset="0.557559" stop-color="#626870" stop-opacity="0.6"/>
<stop offset="0.728422" stop-color="#626870"/>
</radialGradient>
<radialGradient id="paint2_radial_147_266" cx="0" cy="0" r="1" gradientUnits="userSpaceOnUse" gradientTransform="translate(2500 2482) rotate(89.0749) scale(1752.08)">
<stop offset="0.078125" stop-color="#626870" stop-opacity="0"/>
<stop offset="0.557559" stop-color="#626870" stop-opacity="0.6"/>
<stop offset="0.728422" stop-color="#626870"/>
</radialGradient>
<radialGradient id="paint3_radial_147_266" cx="0" cy="0" r="1" gradientUnits="userSpaceOnUse" gradientTransform="translate(2500 2482) rotate(89.0749) scale(1752.08)">
<stop offset="0.078125" stop-color="#626870" stop-opacity="0"/>
<stop offset="0.557559" stop-color="#626870" stop-opacity="0.6"/>
<stop offset="0.728422" stop-color="#626870"/>
</radialGradient>
<radialGradient id="paint4_radial_147_266" cx="0" cy="0" r="1" gradientUnits="userSpaceOnUse" gradientTransform="translate(2500 2482) rotate(89.0749) scale(1752.08)">
<stop offset="0.078125" stop-color="#626870" stop-opacity="0"/>
<stop offset="0.557559" stop-color="#626870" stop-opacity="0.6"/>
<stop offset="0.728422" stop-color="#626870"/>
</radialGradient>
<radialGradient id="paint5_radial_147_266" cx="0" cy="0" r="1" gradientUnits="userSpaceOnUse" gradientTransform="translate(2500 2482) rotate(89.0749) scale(1752.08)">
<stop offset="0.078125" stop-color="#626870" stop-opacity="0"/>
<stop offset="0.557559" stop-color="#626870" stop-opacity="0.6"/>
<stop offset="0.728422" stop-color="#626870"/>
</radialGradient>
<radialGradient id="paint6_radial_147_266" cx="0" cy="0" r="1" gradientUnits="userSpaceOnUse" gradientTransform="translate(2500 2482) rotate(89.0749) scale(1752.08)">
<stop offset="0.078125" stop-color="#626870" stop-opacity="0"/>
<stop offset="0.557559" stop-color="#626870" stop-opacity="0.6"/>
<stop offset="0.728422" stop-color="#626870"/>
</radialGradient>
<radialGradient id="paint7_radial_147_266" cx="0" cy="0" r="1" gradientUnits="userSpaceOnUse" gradientTransform="translate(2500 2482) rotate(89.0749) scale(1752.08)">
<stop offset="0.078125" stop-color="#626870" stop-opacity="0"/>
<stop offset="0.557559" stop-color="#626870" stop-opacity="0.6"/>
<stop offset="0.728422" stop-color="#626870"/>
</radialGradient>
<radialGradient id="paint8_radial_147_266" cx="0" cy="0" r="1" gradientUnits="userSpaceOnUse" gradientTransform="translate(2500 2482) rotate(89.0749) scale(1752.08)">
<stop offset="0.078125" stop-color="#626870" stop-opacity="0"/>
<stop offset="0.557559" stop-color="#626870" stop-opacity="0.6"/>
<stop offset="0.728422" stop-color="#626870"/>
</radialGradient>
<radialGradient id="paint9_radial_147_266" cx="0" cy="0" r="1" gradientUnits="userSpaceOnUse" gradientTransform="translate(2500 2482) rotate(89.0749) scale(1752.08)">
<stop offset="0.078125" stop-color="#626870" stop-opacity="0"/>
<stop offset="0.557559" stop-color="#626870" stop-opacity="0.6"/>
<stop offset="0.728422" stop-color="#626870"/>
</radialGradient>
<radialGradient id="paint10_radial_147_266" cx="0" cy="0" r="1" gradientUnits="userSpaceOnUse" gradientTransform="translate(2500 2482) rotate(89.0749) scale(1752.08)">
<stop offset="0.078125" stop-color="#626870" stop-opacity="0"/>
<stop offset="0.557559" stop-color="#626870" stop-opacity="0.6"/>
<stop offset="0.728422" stop-color="#626870"/>
</radialGradient>
<radialGradient id="paint11_radial_147_266" cx="0" cy="0" r="1" gradientUnits="userSpaceOnUse" gradientTransform="translate(2500 2482) rotate(89.0749) scale(1752.08)">
<stop offset="0.078125" stop-color="#626870" stop-opacity="0"/>
<stop offset="0.557559" stop-color="#626870" stop-opacity="0.6"/>
<stop offset="0.728422" stop-color="#626870"/>
</radialGradient>
</defs>
</svg>
