<svg width="23" height="22" viewBox="0 0 23 22" fill="none" xmlns="http://www.w3.org/2000/svg">
<path d="M19.4609 1.75852C18.0042 0.938787 16.427 0.34382 14.7841 6.08165e-05C14.7697 -0.000495284 14.7554 0.00276789 14.7421 0.00962096C14.7289 0.016474 14.717 0.0267506 14.7074 0.0397256C14.5103 0.476035 14.2803 1.04456 14.1269 1.48087C12.3844 1.16355 10.6122 1.16355 8.86966 1.48087C8.71632 1.03134 8.48632 0.476035 8.27822 0.0397256C8.26726 0.0132826 8.23441 6.08165e-05 8.20155 6.08165e-05C6.55865 0.34382 4.99241 0.938787 3.52475 1.75852C3.5138 1.75852 3.50285 1.77174 3.49189 1.78496C0.512765 7.16611 -0.308686 12.4018 0.0965633 17.5847C0.0965633 17.6111 0.107516 17.6375 0.129421 17.6508C2.1009 19.396 3.99572 20.4537 5.86863 21.1545C5.90148 21.1677 5.93434 21.1545 5.94529 21.128C6.3834 20.4008 6.7777 19.634 7.11723 18.8275C7.13914 18.7746 7.11723 18.7217 7.07342 18.7085C6.44912 18.4176 5.85767 18.0738 5.27718 17.6772C5.23337 17.6508 5.23337 17.5714 5.26623 17.5318C5.38671 17.426 5.50719 17.307 5.62767 17.2012C5.64957 17.1748 5.68243 17.1748 5.70434 17.188C9.47206 19.2638 13.5355 19.2638 17.2594 17.188C17.2813 17.1748 17.3142 17.1748 17.3361 17.2012C17.4566 17.3202 17.577 17.426 17.6975 17.545C17.7413 17.5847 17.7413 17.664 17.6866 17.6904C17.117 18.1003 16.5146 18.4308 15.8903 18.7217C15.8465 18.7349 15.8356 18.801 15.8465 18.8407C16.197 19.6472 16.5913 20.4141 17.0185 21.1412C17.0513 21.1545 17.0842 21.1677 17.117 21.1545C19.0009 20.4537 20.8957 19.396 22.8672 17.6508C22.8891 17.6375 22.9 17.6111 22.9 17.5847C23.382 11.5953 22.1005 6.39926 19.5047 1.78496C19.4938 1.77174 19.4828 1.75852 19.4609 1.75852ZM7.68677 14.4247C6.55865 14.4247 5.61671 13.1687 5.61671 11.6218C5.61671 10.0748 6.53674 8.8188 7.68677 8.8188C8.84776 8.8188 9.76778 10.0881 9.75683 11.6218C9.75683 13.1687 8.8368 14.4247 7.68677 14.4247ZM15.3208 14.4247C14.1927 14.4247 13.2507 13.1687 13.2507 11.6218C13.2507 10.0748 14.1708 8.8188 15.3208 8.8188C16.4818 8.8188 17.4018 10.0881 17.3908 11.6218C17.3908 13.1687 16.4818 14.4247 15.3208 14.4247Z" fill="white"/>
</svg>
