<svg width="23" height="21" viewBox="0 0 23 21" fill="none" xmlns="http://www.w3.org/2000/svg">
<path d="M19.1289 2.51998C17.7585 1.74885 16.2749 1.18916 14.7294 0.86578C14.7158 0.865257 14.7023 0.868326 14.6899 0.874773C14.6774 0.88122 14.6663 0.890887 14.6572 0.903093C14.4718 1.31353 14.2554 1.84835 14.1112 2.25879C12.4719 1.96029 10.8048 1.96029 9.16557 2.25879C9.02132 1.83591 8.80495 1.31353 8.60919 0.903093C8.59889 0.878218 8.56798 0.86578 8.53707 0.86578C6.99157 1.18916 5.5182 1.74885 4.13755 2.51998C4.12725 2.51998 4.11695 2.53242 4.10664 2.54486C1.30414 7.60697 0.531393 12.5323 0.912616 17.4078C0.912616 17.4327 0.922919 17.4576 0.943525 17.47C2.79812 19.1118 4.5806 20.1068 6.34246 20.766C6.37337 20.7784 6.40428 20.766 6.41458 20.7411C6.82672 20.057 7.19764 19.3356 7.51704 18.5769C7.53765 18.5272 7.51704 18.4774 7.47583 18.465C6.88854 18.1914 6.33216 17.868 5.78608 17.4949C5.74487 17.47 5.74487 17.3954 5.77578 17.3581C5.88912 17.2586 6.00245 17.1466 6.11579 17.0471C6.13639 17.0222 6.1673 17.0222 6.18791 17.0347C9.73225 18.9874 13.5548 18.9874 17.0579 17.0347C17.0785 17.0222 17.1094 17.0222 17.13 17.0471C17.2434 17.1591 17.3567 17.2586 17.47 17.3705C17.5113 17.4078 17.5113 17.4824 17.4597 17.5073C16.924 17.8929 16.3573 18.2038 15.77 18.4774C15.7288 18.4899 15.7185 18.5521 15.7288 18.5894C16.0585 19.3481 16.4294 20.0695 16.8312 20.7535C16.8621 20.766 16.8931 20.7784 16.924 20.766C18.6961 20.1068 20.4786 19.1118 22.3332 17.47C22.3538 17.4576 22.3641 17.4327 22.3641 17.4078C22.8175 11.7736 21.612 6.88558 19.1701 2.54486C19.1598 2.53242 19.1495 2.51998 19.1289 2.51998ZM8.05281 14.4352C6.99157 14.4352 6.10549 13.2536 6.10549 11.7984C6.10549 10.3432 6.97096 9.16167 8.05281 9.16167C9.14496 9.16167 10.0104 10.3557 10.0001 11.7984C10.0001 13.2536 9.13466 14.4352 8.05281 14.4352ZM15.2342 14.4352C14.173 14.4352 13.2869 13.2536 13.2869 11.7984C13.2869 10.3432 14.1524 9.16167 15.2342 9.16167C16.3264 9.16167 17.1918 10.3557 17.1815 11.7984C17.1815 13.2536 16.3264 14.4352 15.2342 14.4352Z" fill="#D9D9D9"/>
</svg>
