<svg width="23" height="23" viewBox="0 0 23 23" fill="none" xmlns="http://www.w3.org/2000/svg">
<path d="M6.67 0H16.33C20.01 0 23 2.99001 23 6.67002V16.33C23 18.099 22.2973 19.7956 21.0464 21.0465C19.7955 22.2973 18.099 23.0001 16.33 23.0001H6.67C2.99 23.0001 0 20.0101 0 16.33V6.67002C0 4.90102 0.70273 3.20447 1.9536 1.9536C3.20447 0.702732 4.90101 0 6.67 0ZM6.44 2.30001C5.342 2.30001 4.28898 2.73619 3.51258 3.51259C2.73618 4.28899 2.3 5.34202 2.3 6.44002V16.56C2.3 18.8486 4.1515 20.7001 6.44 20.7001H16.56C17.658 20.7001 18.711 20.2639 19.4874 19.4875C20.2638 18.7111 20.7 17.658 20.7 16.56V6.44002C20.7 4.15151 18.8485 2.30001 16.56 2.30001H6.44ZM17.5375 4.02501C17.9187 4.02501 18.2844 4.17646 18.554 4.44605C18.8236 4.71563 18.975 5.08127 18.975 5.46252C18.975 5.84377 18.8236 6.2094 18.554 6.47898C18.2844 6.74857 17.9187 6.90002 17.5375 6.90002C17.1562 6.90002 16.7906 6.74857 16.521 6.47898C16.2514 6.2094 16.1 5.84377 16.1 5.46252C16.1 5.08127 16.2514 4.71563 16.521 4.44605C16.7906 4.17646 17.1562 4.02501 17.5375 4.02501ZM11.5 5.75002C13.025 5.75002 14.4875 6.35582 15.5659 7.43416C16.6442 8.5125 17.25 9.97503 17.25 11.5C17.25 13.025 16.6442 14.4876 15.5659 15.5659C14.4875 16.6442 13.025 17.25 11.5 17.25C9.97501 17.25 8.51247 16.6442 7.43414 15.5659C6.3558 14.4876 5.75 13.025 5.75 11.5C5.75 9.97503 6.3558 8.5125 7.43414 7.43416C8.51247 6.35582 9.97501 5.75002 11.5 5.75002ZM11.5 8.05002C10.585 8.05002 9.70748 8.4135 9.06048 9.06051C8.41348 9.70751 8.05 10.585 8.05 11.5C8.05 12.415 8.41348 13.2926 9.06048 13.9396C9.70748 14.5866 10.585 14.95 11.5 14.95C12.415 14.95 13.2925 14.5866 13.9395 13.9396C14.5865 13.2926 14.95 12.415 14.95 11.5C14.95 10.585 14.5865 9.70751 13.9395 9.06051C13.2925 8.4135 12.415 8.05002 11.5 8.05002Z" fill="white"/>
</svg>
