<svg width="23" height="22" viewBox="0 0 23 22" fill="none" xmlns="http://www.w3.org/2000/svg">
<path d="M6.73268 0H15.8199C19.2818 0 22.0945 2.81274 22.0945 6.27456V15.3619C22.0945 17.026 21.4334 18.6219 20.2567 19.7986C19.08 20.9754 17.4841 21.6364 15.8199 21.6364H6.73268C3.27086 21.6364 0.45813 18.8237 0.45813 15.3619V6.27456C0.45813 4.61045 1.1192 3.01449 2.2959 1.83778C3.47261 0.661068 5.06856 0 6.73268 0ZM6.51631 2.16364C5.48341 2.16364 4.49282 2.57396 3.76245 3.30433C3.03208 4.0347 2.62177 5.0253 2.62177 6.0582V15.5782C2.62177 17.731 4.36349 19.4728 6.51631 19.4728H16.0363C17.0692 19.4728 18.0598 19.0625 18.7902 18.3321C19.5205 17.6017 19.9309 16.6111 19.9309 15.5782V6.0582C19.9309 3.90537 18.1891 2.16364 16.0363 2.16364H6.51631ZM16.9559 3.78637C17.3145 3.78637 17.6585 3.92885 17.9121 4.18245C18.1657 4.43605 18.3081 4.78 18.3081 5.13865C18.3081 5.4973 18.1657 5.84125 17.9121 6.09485C17.6585 6.34846 17.3145 6.49093 16.9559 6.49093C16.5972 6.49093 16.2533 6.34846 15.9997 6.09485C15.7461 5.84125 15.6036 5.4973 15.6036 5.13865C15.6036 4.78 15.7461 4.43605 15.9997 4.18245C16.2533 3.92885 16.5972 3.78637 16.9559 3.78637ZM11.2763 5.40911C12.7109 5.40911 14.0867 5.97899 15.1011 6.9934C16.1155 8.0078 16.6854 9.38363 16.6854 10.8182C16.6854 12.2528 16.1155 13.6286 15.1011 14.643C14.0867 15.6574 12.7109 16.2273 11.2763 16.2273C9.84173 16.2273 8.46591 15.6574 7.45151 14.643C6.43711 13.6286 5.86722 12.2528 5.86722 10.8182C5.86722 9.38363 6.43711 8.0078 7.45151 6.9934C8.46591 5.97899 9.84173 5.40911 11.2763 5.40911ZM11.2763 7.57275C10.4156 7.57275 9.59007 7.91468 8.98143 8.52332C8.37279 9.13196 8.03086 9.95746 8.03086 10.8182C8.03086 11.679 8.37279 12.5045 8.98143 13.1131C9.59007 13.7217 10.4156 14.0637 11.2763 14.0637C12.1371 14.0637 12.9626 13.7217 13.5712 13.1131C14.1798 12.5045 14.5218 11.679 14.5218 10.8182C14.5218 9.95746 14.1798 9.13196 13.5712 8.52332C12.9626 7.91468 12.1371 7.57275 11.2763 7.57275Z" fill="#D9D9D9"/>
</svg>
