<svg width="23" height="22" viewBox="0 0 23 22" fill="none" xmlns="http://www.w3.org/2000/svg">
<path d="M19.5996 0C20.2372 0 20.8487 0.253282 21.2995 0.704127C21.7504 1.15497 22.0037 1.76645 22.0037 2.40404V19.2323C22.0037 19.8699 21.7504 20.4814 21.2995 20.9322C20.8487 21.3831 20.2372 21.6364 19.5996 21.6364H2.77135C2.13376 21.6364 1.52228 21.3831 1.07144 20.9322C0.620592 20.4814 0.36731 19.8699 0.36731 19.2323V2.40404C0.36731 1.76645 0.620592 1.15497 1.07144 0.704127C1.52228 0.253282 2.13376 0 2.77135 0H19.5996ZM18.9986 18.6313V12.2606C18.9986 11.2213 18.5858 10.2246 17.8509 9.48975C17.116 8.75487 16.1193 8.34202 15.08 8.34202C14.0583 8.34202 12.8683 8.96707 12.2914 9.90465V8.5704H8.93771V18.6313H12.2914V12.7054C12.2914 11.7798 13.0366 11.0225 13.9622 11.0225C14.4085 11.0225 14.8365 11.1998 15.1521 11.5154C15.4677 11.831 15.645 12.259 15.645 12.7054V18.6313H18.9986ZM5.03115 6.68323C5.56672 6.68323 6.08037 6.47048 6.45908 6.09177C6.83779 5.71306 7.05054 5.19942 7.05054 4.66384C7.05054 3.54596 6.14903 2.63242 5.03115 2.63242C4.49238 2.63242 3.97569 2.84645 3.59472 3.22741C3.21376 3.60838 2.99973 4.12507 2.99973 4.66384C2.99973 5.78172 3.91327 6.68323 5.03115 6.68323ZM6.70196 18.6313V8.5704H3.37236V18.6313H6.70196Z" fill="#D9D9D9"/>
</svg>
