<svg width="23" height="21" viewBox="0 0 23 21" fill="none" xmlns="http://www.w3.org/2000/svg">
<path d="M21.9985 4.20602C21.9097 3.78715 21.7359 3.39984 21.492 3.0773C21.2481 2.75476 20.9413 2.5066 20.5979 2.35409C17.2945 0.854363 12.0207 0.865725 11.7309 0.865725C11.4411 0.865725 6.16727 0.854363 2.86386 2.35409C2.52051 2.5066 2.21373 2.75476 1.9698 3.0773C1.72587 3.39984 1.55207 3.78715 1.46329 4.20602C1.21215 5.33082 0.91272 7.39862 0.91272 10.8185C0.91272 14.2383 1.21215 16.3061 1.46329 17.4309C1.55207 17.8498 1.72587 18.2371 1.9698 18.5596C2.21373 18.8821 2.52051 19.1303 2.86386 19.2828C6.03204 20.7257 10.9968 20.7712 11.6633 20.7712H11.7985C12.465 20.7712 17.4298 20.7257 20.5979 19.2828C20.9413 19.1303 21.2481 18.8821 21.492 18.5596C21.7359 18.2371 21.9097 17.8498 21.9985 17.4309C22.2497 16.3061 22.5491 14.2383 22.5491 10.8185C22.5491 7.39862 22.2497 5.33082 21.9985 4.20602ZM15.0343 11.1934L10.3979 14.8291C10.3365 14.8823 10.2618 14.9103 10.1854 14.9086C10.1215 14.9058 10.0588 14.8864 10.0019 14.8518C9.94019 14.814 9.88855 14.7569 9.85275 14.6867C9.81694 14.6165 9.79837 14.536 9.79908 14.4541V7.18275C9.79837 7.1009 9.81694 7.02041 9.85275 6.95022C9.88855 6.88003 9.94019 6.82287 10.0019 6.7851C10.0635 6.74645 10.1329 6.72815 10.2026 6.73215C10.2723 6.73615 10.3398 6.7623 10.3979 6.80782L15.0343 10.4435C15.0882 10.4834 15.1326 10.5388 15.1633 10.6043C15.1941 10.6699 15.2103 10.7436 15.2103 10.8185C15.2103 10.8933 15.1941 10.967 15.1633 11.0326C15.1326 11.0981 15.0882 11.1535 15.0343 11.1934Z" fill="#D9D9D9"/>
</svg>
