<svg width="23" height="22" viewBox="0 0 23 22" fill="none" xmlns="http://www.w3.org/2000/svg">
<path d="M22.4147 3.55082C22.3204 3.10555 22.1356 2.69384 21.8763 2.35096C21.617 2.00809 21.2909 1.74429 20.9259 1.58217C17.4143 -0.0120751 11.808 2.6906e-06 11.5 2.6906e-06C11.192 2.6906e-06 5.58571 -0.0120751 2.07411 1.58217C1.70913 1.74429 1.38301 2.00809 1.1237 2.35096C0.8644 2.69384 0.679643 3.10555 0.585268 3.55082C0.318304 4.74651 0 6.94464 0 10.58C0 14.2154 0.318304 16.4135 0.585268 17.6092C0.679643 18.0545 0.8644 18.4662 1.1237 18.809C1.38301 19.1519 1.70913 19.4157 2.07411 19.5778C5.44196 21.1117 10.7196 21.16 11.4281 21.16H11.5719C12.2804 21.16 17.558 21.1117 20.9259 19.5778C21.2909 19.4157 21.617 19.1519 21.8763 18.809C22.1356 18.4662 22.3204 18.0545 22.4147 17.6092C22.6817 16.4135 23 14.2154 23 10.58C23 6.94464 22.6817 4.74651 22.4147 3.55082ZM15.0116 10.9786L10.083 14.8434C10.0177 14.9 9.93829 14.9297 9.85714 14.9279C9.78913 14.925 9.72251 14.9043 9.66205 14.8676C9.59643 14.8274 9.54154 14.7666 9.50347 14.692C9.46541 14.6174 9.44567 14.5319 9.44643 14.4448V6.71516C9.44567 6.62815 9.46541 6.54259 9.50347 6.46797C9.54154 6.39336 9.59643 6.3326 9.66205 6.29244C9.72753 6.25136 9.80125 6.23191 9.87538 6.23616C9.94951 6.24041 10.0213 6.26821 10.083 6.3166L15.0116 10.1814C15.0689 10.2239 15.1161 10.2827 15.1488 10.3524C15.1815 10.4221 15.1986 10.5004 15.1986 10.58C15.1986 10.6596 15.1815 10.7379 15.1488 10.8076C15.1161 10.8773 15.0689 10.9361 15.0116 10.9786Z" fill="white"/>
</svg>
