<?xml version="1.0" standalone="no"?>
<!DOCTYPE svg PUBLIC "-//W3C//DTD SVG 20010904//EN"
 "http://www.w3.org/TR/2001/REC-SVG-20010904/DTD/svg10.dtd">
<svg version="1.0" xmlns="http://www.w3.org/2000/svg"
 width="350.000000pt" height="76.000000pt" viewBox="0 0 350.000000 76.000000"
 preserveAspectRatio="xMidYMid meet">

<g transform="translate(0.000000,76.000000) scale(0.100000,-0.100000)"
fill="#000000" stroke="none">
<path d="M0 380 l0 -380 975 0 975 0 0 380 0 380 -975 0 -975 0 0 -380z m400
-123 c0 -82 4 -127 12 -135 9 -9 2 -12 -33 -12 -35 1 -40 3 -26 11 14 9 17 26
17 120 0 88 -3 111 -15 115 -21 9 -8 24 21 24 l24 0 0 -123z m450 36 l0 -87
30 29 c22 21 27 31 18 37 -8 4 3 8 26 8 l39 0 -41 -30 c-23 -17 -42 -33 -42
-37 0 -4 21 -29 47 -55 l47 -48 -37 0 c-24 0 -37 5 -37 13 0 8 -11 24 -25 37
l-25 23 0 -24 c0 -14 5 -30 12 -37 9 -9 2 -12 -32 -12 -34 0 -41 3 -32 12 8 8
12 50 12 125 0 101 -2 113 -17 113 -15 0 -16 2 -3 10 8 5 25 10 38 10 21 0 22
-3 22 -87z m-569 51 c24 -22 24 -49 0 -73 -18 -18 -18 -19 10 -40 38 -28 39
-71 3 -100 -22 -17 -41 -21 -108 -21 -60 1 -76 3 -63 11 14 9 17 26 17 119 0
93 -2 110 -16 110 -8 0 -12 5 -9 10 11 17 145 3 166 -16z m919 -50 c0 -8 10
-14 26 -14 14 0 23 -4 19 -10 -3 -5 -15 -10 -26 -10 -17 0 -19 -7 -19 -66 0
-65 0 -66 25 -62 21 4 23 3 13 -9 -6 -8 -24 -13 -42 -11 l-31 3 -5 80 c-4 62
-2 85 10 101 16 23 30 22 30 -2z m-631 -28 c5 -6 11 -39 13 -71 2 -41 7 -59
16 -57 19 3 14 -16 -5 -21 -10 -3 -42 -4 -72 -3 -39 1 -57 6 -65 18 -15 25 2
50 45 64 26 9 35 18 37 38 4 32 -25 48 -43 23 -15 -21 -35 -22 -35 -2 0 16 55
34 82 27 10 -2 22 -9 27 -16z m1069 -67 c2 -35 8 -69 14 -76 8 -10 1 -13 -33
-13 -27 0 -39 3 -31 9 9 5 12 27 10 72 -3 64 -3 64 -33 64 -30 0 -30 -1 -33
-58 -2 -35 2 -64 9 -73 10 -12 4 -14 -32 -14 -33 0 -40 3 -31 12 15 15 16 124
2 133 -20 12 3 27 34 23 17 -3 42 -2 56 2 46 13 65 -9 68 -81z m-873 71 c13
-21 -7 -31 -31 -16 -31 21 -51 20 -64 -3 -29 -54 0 -115 55 -115 27 0 32 -3
23 -13 -12 -15 -62 -17 -88 -3 -44 23 -45 115 -3 148 20 14 99 16 108 2z m345
-17 l0 -27 -16 22 c-10 15 -24 22 -37 20 -36 -5 -26 -36 18 -61 22 -12 41 -31
43 -41 6 -31 -27 -56 -73 -56 -36 0 -44 4 -48 22 -9 31 1 36 19 10 17 -24 43
-29 62 -10 9 9 8 16 -5 30 -9 10 -21 18 -26 18 -19 0 -47 33 -47 55 0 32 19
45 67 45 40 0 43 -2 43 -27z m310 2 c53 -56 15 -145 -61 -145 -82 0 -124 87
-69 145 18 19 34 25 65 25 31 0 47 -6 65 -25z m392 8 c10 -9 18 -24 18 -34 0
-15 -10 -19 -57 -21 -52 -3 -58 -5 -55 -23 5 -34 41 -57 76 -49 27 6 29 5 17
-10 -22 -27 -86 -21 -110 10 -46 58 -11 144 56 144 20 0 45 -7 55 -17z"/>
<path d="M180 301 c0 -47 2 -51 23 -51 66 0 74 92 9 98 l-32 3 0 -50z"/>
<path d="M184 226 c-3 -7 -4 -33 -2 -57 3 -37 7 -45 26 -47 37 -5 72 24 72 59
0 25 -6 32 -35 45 -43 18 -54 18 -61 0z"/>
<path d="M490 174 c-11 -12 -10 -18 3 -31 21 -21 47 -9 47 22 0 29 -29 35 -50
9z"/>
<path d="M1322 258 c-18 -18 -15 -103 4 -123 24 -23 57 -15 73 19 20 43 -3
110 -39 114 -14 2 -31 -3 -38 -10z"/>
<path d="M1726 254 c-11 -29 -6 -34 29 -34 35 0 40 5 29 34 -8 21 -50 21 -58
0z"/>
<path d="M2835 334 c-6 -2 -9 -47 -7 -114 3 -95 5 -110 20 -110 15 0 17 14 17
112 0 106 -4 123 -30 112z"/>
<path d="M3404 333 c-8 -2 -10 -18 -7 -43 4 -29 2 -40 -8 -40 -10 0 -10 -3 -1
-12 7 -7 12 -34 12 -60 0 -46 -1 -48 -29 -48 -43 0 -58 64 -24 102 22 25 -2
23 -27 -2 -24 -24 -27 -82 -5 -104 10 -9 34 -15 68 -15 l52 0 -3 107 c-3 107
-7 123 -28 115z"/>
<path d="M2059 230 c2 -61 -1 -95 -9 -105 -11 -13 -2 -15 63 -15 59 0 76 3 81
16 11 29 6 34 -15 13 -14 -14 -30 -19 -52 -17 l-32 3 0 98 c0 90 -1 97 -20 97
-19 0 -20 -5 -16 -90z"/>
<path d="M3005 215 c0 -100 1 -105 21 -105 19 0 21 4 16 50 -3 38 -1 50 9 50
12 0 12 2 0 9 -9 6 -12 23 -10 55 4 41 2 46 -16 46 -19 0 -20 -7 -20 -105z"/>
<path d="M3078 310 c12 -5 25 -16 28 -25 9 -24 -4 -63 -24 -68 -14 -4 -13 -5
4 -6 27 -1 54 29 54 60 0 33 -18 49 -54 48 -29 0 -29 -1 -8 -9z"/>
<path d="M2243 243 c-17 -6 -16 -23 1 -23 8 0 16 7 20 15 6 15 1 17 -21 8z"/>
<path d="M2287 239 c6 -8 11 -34 10 -59 -2 -38 -5 -45 -22 -45 -15 0 -19 6
-18 22 3 25 -21 22 -31 -4 -10 -26 12 -41 62 -41 56 1 68 6 48 21 -9 7 -16 32
-18 62 -2 40 -7 51 -23 54 -15 3 -17 1 -8 -10z"/>
<path d="M2367 243 c-4 -3 -3 -11 2 -17 6 -6 11 -34 13 -61 l3 -50 58 -2 c48
-1 57 1 53 14 -3 8 -6 39 -6 70 0 46 -3 54 -17 51 -14 -2 -16 -13 -14 -61 2
-55 1 -57 -22 -57 -29 0 -37 16 -37 76 0 41 -14 57 -33 37z"/>
<path d="M2539 245 c0 0 -1 -30 -2 -68 -2 -61 0 -67 18 -67 18 0 20 7 20 57 0
55 1 58 25 58 24 0 25 -3 25 -58 0 -50 2 -57 20 -57 18 0 20 5 17 57 -2 32 -8
63 -14 70 -6 7 -30 11 -59 10 -27 -1 -49 -2 -50 -2z"/>
<path d="M2725 238 c-28 -16 -35 -28 -35 -64 0 -54 60 -83 105 -51 16 13 15
14 -14 9 -40 -6 -61 12 -61 53 0 42 21 61 50 45 22 -12 44 -5 35 11 -8 12 -56
11 -80 -3z"/>
<path d="M2887 243 c-4 -3 3 -11 16 -18 19 -9 22 -19 22 -63 -1 -42 2 -52 15
-52 14 0 16 9 13 58 -3 31 -6 63 -8 70 -5 13 -47 17 -58 5z"/>
<path d="M3169 234 c-12 -14 -11 -16 5 -13 11 2 21 10 24 17 5 17 -13 15 -29
-4z"/>
<path d="M3227 190 c4 -55 2 -60 -16 -60 -26 0 -36 17 -21 35 7 9 8 15 2 15
-16 0 -34 -28 -30 -47 3 -14 14 -18 56 -19 29 -1 55 3 58 7 3 5 0 9 -5 9 -6 0
-11 20 -11 44 0 53 -8 76 -25 76 -9 0 -11 -17 -8 -60z"/>
</g>
</svg>
